<?xml version="1.0" encoding="UTF-8"?><!DOCTYPE svg PUBLIC "-//W3C//DTD SVG 1.1//EN" "http://www.w3.org/Graphics/SVG/1.1/DTD/svg11.dtd"><svg xmlns="http://www.w3.org/2000/svg" xmlns:xlink="http://www.w3.org/1999/xlink"><symbol id="telegram" viewBox="0 0 496 512"><path d="M248 8C111 8 0 119 0 256s111 248 248 248 248-111 248-248S385 8 248 8zm121.8 169.9l-40.7 191.8c-3 13.6-11.1 16.9-22.4 10.5l-62-45.7-29.9 28.8c-3.3 3.3-6.1 6.1-12.5 6.1l4.4-63.1 114.9-103.8c5-4.4-1.1-6.9-7.7-2.5l-142 89.4-61.2-19.1c-13.3-4.2-13.6-13.3 2.8-19.7l239.1-92.2c11.1-4 20.8 2.7 17.2 19.5z"/></symbol><symbol id="instagram" viewBox="0 0 448 512"><path d="M224.1 141c-63.6 0-114.9 51.3-114.9 114.9s51.3 114.9 114.9 114.9S339 319.5 339 255.9 287.7 141 224.1 141zm0 189.6c-41.1 0-74.7-33.5-74.7-74.7s33.5-74.7 74.7-74.7 74.7 33.5 74.7 74.7-33.6 74.7-74.7 74.7zm146.4-194.3c0 14.9-12 26.8-26.8 26.8-14.9 0-26.8-12-26.8-26.8s12-26.8 26.8-26.8 26.8 12 26.8 26.8zm76.1 27.2c-1.7-35.9-9.9-67.7-36.2-93.9-26.2-26.2-58-34.4-93.9-36.2-37-2.1-147.9-2.1-184.9 0-35.8 1.7-67.6 9.9-93.9 36.1s-34.4 58-36.2 93.9c-2.1 37-2.1 147.9 0 184.9 1.7 35.9 9.9 67.7 36.2 93.9s58 34.4 93.9 36.2c37 2.1 147.9 2.1 184.9 0 35.9-1.7 67.7-9.9 93.9-36.2 26.2-26.2 34.4-58 36.2-93.9 2.1-37 2.1-147.8 0-184.8zM398.8 388c-7.8 19.6-22.9 34.7-42.6 42.6-29.5 11.7-99.5 9-132.1 9s-102.7 2.6-132.1-9c-19.6-7.8-34.7-22.9-42.6-42.6-11.7-29.5-9-99.5-9-132.1s-2.6-102.7 9-132.1c7.8-19.6 22.9-34.7 42.6-42.6 29.5-11.7 99.5-9 132.1-9s102.7-2.6 132.1 9c19.6 7.8 34.7 22.9 42.6 42.6 11.7 29.5 9 99.5 9 132.1s2.7 102.7-9 132.1z"/></symbol><symbol id="facebook" viewBox="0 0 512 512"><path d="M504 256C504 119 393 8 256 8S8 119 8 256c0 123.78 90.69 226.38 209.25 245V327.69h-63V256h63v-54.64c0-62.15 37-96.48 93.67-96.48 27.14 0 55.52 4.84 55.52 4.84v61h-31.28c-30.8 0-40.41 19.12-40.41 38.73V256h68.78l-11 71.69h-57.78V501C413.31 482.38 504 379.78 504 256z"/></symbol><symbol id="vk" viewBox="0 0 576 512"><path d="M545 117.7c3.7-12.5 0-21.7-17.8-21.7h-58.9c-15 0-21.9 7.9-25.6 16.7 0 0-30 73.1-72.4 120.5-13.7 13.7-20 18.1-27.5 18.1-3.7 0-9.4-4.4-9.4-16.9V117.7c0-15-4.2-21.7-16.6-21.7h-92.6c-9.4 0-15 7-15 13.5 0 14.2 21.2 17.5 23.4 57.5v86.8c0 19-3.4 22.5-10.9 22.5-20 0-68.6-73.4-97.4-157.4-5.8-16.3-11.5-22.9-26.6-22.9H38.8c-16.8 0-20.2 7.9-20.2 16.7 0 15.6 20 93.1 93.1 195.5C160.4 378.1 229 416 291.4 416c37.5 0 42.1-8.4 42.1-22.9 0-66.8-3.4-73.1 15.4-73.1 8.7 0 23.7 4.4 58.7 38.1 40 40 46.6 57.9 69 57.9h58.9c16.8 0 25.3-8.4 20.4-25-11.2-34.9-86.9-106.7-90.3-111.5-8.7-11.2-6.2-16.2 0-26.2.1-.1 72-101.3 79.4-135.6z"/></symbol><symbol id="soundcloud" viewBox="0 0 640 512"><path d="M111.4 256.3l5.8 65-5.8 68.3c-.3 2.5-2.2 4.4-4.4 4.4s-4.2-1.9-4.2-4.4l-5.6-68.3 5.6-65c0-2.2 1.9-4.2 4.2-4.2 2.2 0 4.1 2 4.4 4.2zm21.4-45.6c-2.8 0-4.7 2.2-5 5l-5 105.6 5 68.3c.3 2.8 2.2 5 5 5 2.5 0 4.7-2.2 4.7-5l5.8-68.3-5.8-105.6c0-2.8-2.2-5-4.7-5zm25.5-24.1c-3.1 0-5.3 2.2-5.6 5.3l-4.4 130 4.4 67.8c.3 3.1 2.5 5.3 5.6 5.3 2.8 0 5.3-2.2 5.3-5.3l5.3-67.8-5.3-130c0-3.1-2.5-5.3-5.3-5.3zM7.2 283.2c-1.4 0-2.2 1.1-2.5 2.5L0 321.3l4.7 35c.3 1.4 1.1 2.5 2.5 2.5s2.2-1.1 2.5-2.5l5.6-35-5.6-35.6c-.3-1.4-1.1-2.5-2.5-2.5zm23.6-21.9c-1.4 0-2.5 1.1-2.5 2.5l-6.4 57.5 6.4 56.1c0 1.7 1.1 2.8 2.5 2.8s2.5-1.1 2.8-2.5l7.2-56.4-7.2-57.5c-.3-1.4-1.4-2.5-2.8-2.5zm25.3-11.4c-1.7 0-3.1 1.4-3.3 3.3L47 321.3l5.8 65.8c.3 1.7 1.7 3.1 3.3 3.1 1.7 0 3.1-1.4 3.1-3.1l6.9-65.8-6.9-68.1c0-1.9-1.4-3.3-3.1-3.3zm25.3-2.2c-1.9 0-3.6 1.4-3.6 3.6l-5.8 70 5.8 67.8c0 2.2 1.7 3.6 3.6 3.6s3.6-1.4 3.9-3.6l6.4-67.8-6.4-70c-.3-2.2-2-3.6-3.9-3.6zm241.4-110.9c-1.1-.8-2.8-1.4-4.2-1.4-2.2 0-4.2.8-5.6 1.9-1.9 1.7-3.1 4.2-3.3 6.7v.8l-3.3 176.7 1.7 32.5 1.7 31.7c.3 4.7 4.2 8.6 8.9 8.6s8.6-3.9 8.6-8.6l3.9-64.2-3.9-177.5c-.4-3-2-5.8-4.5-7.2zm-26.7 15.3c-1.4-.8-2.8-1.4-4.4-1.4s-3.1.6-4.4 1.4c-2.2 1.4-3.6 3.9-3.6 6.7l-.3 1.7-2.8 160.8s0 .3 3.1 65.6v.3c0 1.7.6 3.3 1.7 4.7 1.7 1.9 3.9 3.1 6.4 3.1 2.2 0 4.2-1.1 5.6-2.5 1.7-1.4 2.5-3.3 2.5-5.6l.3-6.7 3.1-58.6-3.3-162.8c-.3-2.8-1.7-5.3-3.9-6.7zm-111.4 22.5c-3.1 0-5.8 2.8-5.8 6.1l-4.4 140.6 4.4 67.2c.3 3.3 2.8 5.8 5.8 5.8 3.3 0 5.8-2.5 6.1-5.8l5-67.2-5-140.6c-.2-3.3-2.7-6.1-6.1-6.1zm376.7 62.8c-10.8 0-21.1 2.2-30.6 6.1-6.4-70.8-65.8-126.4-138.3-126.4-17.8 0-35 3.3-50.3 9.4-6.1 2.2-7.8 4.4-7.8 9.2v249.7c0 5 3.9 8.6 8.6 9.2h218.3c43.3 0 78.6-35 78.6-78.3.1-43.6-35.2-78.9-78.5-78.9zm-296.7-60.3c-4.2 0-7.5 3.3-7.8 7.8l-3.3 136.7 3.3 65.6c.3 4.2 3.6 7.5 7.8 7.5 4.2 0 7.5-3.3 7.5-7.5l3.9-65.6-3.9-136.7c-.3-4.5-3.3-7.8-7.5-7.8zm-53.6-7.8c-3.3 0-6.4 3.1-6.4 6.7l-3.9 145.3 3.9 66.9c.3 3.6 3.1 6.4 6.4 6.4 3.6 0 6.4-2.8 6.7-6.4l4.4-66.9-4.4-145.3c-.3-3.6-3.1-6.7-6.7-6.7zm26.7 3.4c-3.9 0-6.9 3.1-6.9 6.9L227 321.3l3.9 66.4c.3 3.9 3.1 6.9 6.9 6.9s6.9-3.1 6.9-6.9l4.2-66.4-4.2-141.7c0-3.9-3-6.9-6.9-6.9z"/></symbol><symbol id="youtube" viewBox="0 0 576 512"><path d="M549.655 124.083c-6.281-23.65-24.787-42.276-48.284-48.597C458.781 64 288 64 288 64S117.22 64 74.629 75.486c-23.497 6.322-42.003 24.947-48.284 48.597-11.412 42.867-11.412 132.305-11.412 132.305s0 89.438 11.412 132.305c6.281 23.65 24.787 41.5 48.284 47.821C117.22 448 288 448 288 448s170.78 0 213.371-11.486c23.497-6.321 42.003-24.171 48.284-47.821 11.412-42.867 11.412-132.305 11.412-132.305s0-89.438-11.412-132.305zm-317.51 213.508V175.185l142.739 81.205-142.739 81.201z"/></symbol><symbol id="bandcamp" viewBox="0 0 496 512"><path d="M248 8C111 8 0 119 0 256s111 248 248 248 248-111 248-248S385 8 248 8zm48.2 326.1h-181L199.9 178h181l-84.7 156.1z"/></symbol><symbol id="discogs" viewBox="0 0 1000 1000"><path d="M359.3 499.7c0-78.3 63.5-141.8 141.7-141.8 78.3 0 141.7 63.4 141.7 141.8 0 78.3-63.5 141.7-141.7 141.7-78.2 0-141.7-63.4-141.7-141.7zm6.2 0c.2 74.9 60.7 135.4 135.5 135.5 74.8 0 135.6-60.7 135.6-135.5-.1-74.9-60.7-135.5-135.6-135.6-74.8 0-135.5 60.7-135.5 135.6z"/><path d="M523.5 499.7c0 12.3-10.1 22.3-22.4 22.3-12.3 0-22.4-10-22.4-22.3 0-12.4 10-22.4 22.4-22.4 12.3 0 22.4 10 22.4 22.4z"/><path fill="none" d="M501.1 314.8c-102.2 0-184.9 82.8-184.9 184.9 0 52.2 21.7 99.2 56.5 132.8l-.6-.6-48.2 52.1c16.8 16.2 35.8 30.1 56.6 41.3l34.8-62c25.7 13.5 54.9 21.2 85.9 21.2 102.1 0 184.9-82.8 184.9-184.9 0-49.4-19.5-94.2-51-127.3l48.5-52.2c-16.5-16.7-35.2-31.2-55.7-42.9l-34.2 62.4c-27.4-15.7-58.9-24.8-92.6-24.8zM262.4 750.5l-49.2 53.2c26.2 24.8 55.4 46.3 87.3 63.7l35.5-63.2c-26.8-14.6-51.5-32.8-73.6-53.7zM745.1 253.8l49.3-53.1c-26.3-25.8-56-48.2-88.3-66.4l-34.8 63.6c27 15.4 51.8 34.2 73.8 55.9zM689.7 313.4l49.1-52.8c-21.4-21.3-45.6-39.6-72-54.6l-34.6 63.2c21.1 12.1 40.5 27 57.5 44.2zM317.6 690.8l-48.9 52.9c21.5 20.5 45.6 38.2 71.9 52.5l35.3-62.8c-21.4-11.5-41-25.9-58.3-42.6z"/><path d="M245.1 499.7c0 72.4 30.2 137.8 78.7 184.4L372 632l.6.6c-34.8-33.6-56.5-80.7-56.5-132.8 0-102.1 82.7-184.9 184.9-184.9 33.7 0 65.2 9.1 92.4 24.9l34.2-62.4C590.2 256 547 243.8 501 243.8c-141-.2-255.9 114.7-255.9 255.9zM686 499.7c0 102.1-82.8 184.9-184.9 184.9-31 0-60.2-7.7-85.9-21.2l-34.8 62c36 19.3 77.1 30.3 120.7 30.3 141.2 0 256-114.8 256-256 0-69.9-28.2-133.3-73.7-179.5L635 372.3c31.5 33.2 51 78 51 127.4z"/><path d="M163.9 499.7c0 95.9 40.3 182.6 104.8 244.1l48.9-52.9c-50.3-48.3-81.7-116.1-81.7-191.2 0-146.3 119-265.2 265.2-265.2 47.6 0 92.3 12.7 131 34.8l34.6-63.2c-49-27.7-105.5-43.7-165.6-43.7-185.9 0-337.2 151.3-337.2 337.3zM766.4 499.7c0 146.3-119 265.2-265.2 265.2-45.3 0-87.9-11.4-125.3-31.5l-35.3 62.8c47.8 26 102.5 40.7 160.6 40.7 186 0 337.3-151.3 337.3-337.3 0-93.3-38.1-177.9-99.6-239.1l-49.1 52.8c47.3 48 76.6 113.8 76.6 186.4z"/><path d="M847.6 499.7c0 191.1-155.4 346.5-346.5 346.5-59.7 0-116-15.2-165.1-41.9l-35.5 63.2c59.6 32.6 128 51.2 200.6 51.2 231 0 419-188 419-419 0-117-48.2-222.8-125.7-298.9l-49.3 53.1c63.3 62.8 102.5 149.7 102.5 245.8zM82.1 499.7c0 119.6 50.5 227.6 131.1 304l49.2-53.2c-66.3-63.2-107.8-152.2-107.8-250.8 0-191.1 155.4-346.5 346.5-346.5 61.8 0 119.8 16.3 170.1 44.8l34.8-63.6c-60.6-34.2-130.5-53.7-204.9-53.7-231-.1-419 187.9-419 419z"/><path d="M848.8 142.3L800.7 194c79.3 77.8 128.7 186 128.7 305.7 0 236.1-192.1 428.2-428.2 428.2-74.3 0-144.2-19-205.1-52.4l-35.6 63.4c71.2 39.1 152.9 61.4 239.8 61.5 276.1 0 500.1-223.9 500.1-500-.2-140.5-58.3-267.3-151.6-358.1zM72.9 499.7C72.9 263.5 265 71.4 501.1 71.4c76 0 147.4 20 209.4 54.9l33.9-62C674.4 24.9 594 1.9 508.3.5h-8.1C225.7 1 3.3 221.7.3 495.7v4.8C.6 643.8 61 772.8 157.6 863.9l49.4-53.4C124.5 732.4 72.9 621.9 72.9 499.7z"/></symbol></svg>