<svg xmlns="http://www.w3.org/2000/svg" width="2200" height="2200"><path d="M0 0v2200h2200V0H0z" fill="#010101"/><path d="M100 100v2000h2000V100H100z" fill="silver"/><path d="M217 217v1769h1769V217H217z" fill="#010101"/><path d="M1652 474c-4.07-8.73-13.61-15.494-21-21.4-11.27-9.001-25.32-18.322-40-20.391-15.3-2.157-34.12 1.67-46 11.98-15.74 13.662-22.16 39.657-18.54 59.811 2.44 13.565 9.41 28.976 20.54 37.585 18.93 14.652 48.73 12.82 68.83 2.115 10.11-5.384 18.63-13.825 27.17-21.276 2.68-2.338 6.13-7.626 9.47-8.788 2.96-1.027 5.87 3.573 7.53 5.364 6.61 7.145 13.59 13.227 21.42 18.985 18.73 13.763 47 19.64 68.41 8.505 31.82-16.548 40.16-64.038 19.41-92.579-7.65-10.519-21.59-18.483-34.24-21.382-19.52-4.471-43.89 4.811-58.29 18-5.35 4.903-10.49 10.114-15.58 15.3-3 3.061-5.15 6.389-9.13 8.171z" fill="silver"/><path d="M1635 491c-7.15-3.334-12.31-10.534-18.29-15.625-5.25-4.478-11.29-7.081-17.29-10.349-4.65-2.535-10.1-4.514-15.42-4.933-39.32-3.099-42.49 63.42-3 63.903 4.69.057 9.48.111 13.99-1.381 7.08-2.345 14.61-7.404 20.3-12.077 6.08-5.002 18.29-11.263 19.71-19.538m82-30.532c-13.26 2.544-27.2 12.772-36.33 22.285-2.27 2.364-8.26 6.778-8.07 10.392.23 4.453 8.33 9.94 11.4 12.681 12.31 10.988 30.93 21.209 48 17.795 20.89-4.179 27.1-31.734 17.7-48.625-6.33-11.381-20.12-16.941-32.7-14.528z" fill="#010101"/><path d="M1682 680c-.1 12.433-3.96 25.803-14.3 33.518-10.96 8.176-24.42-1.435-24.7-13.518h-13c1.05 7.151 3.87 15.486 9.38 20.502 10.34 9.413 30.97 6.393 40.3-2.831 13.93-13.783 15.92-37.197 14.15-55.671-.99-10.4-4.74-23.759-13.83-29.895-17.46-11.784-46.98-4.55-49.87 18.984-1.43 11.625.55 25.715 10.2 33.526 8.51 6.895 22.05 6.228 31.67 2.635 4.05-1.512 6.79-4.519 10-7.25m52-53.471c-26.7 6.033-28.92 40.423-26.29 62.471.59 4.918 1.15 9.253 2.72 14 4.78 14.503 17.4 26.024 33.57 22.545 31.67-6.816 32.82-50.388 25.97-75.545-4.2-15.424-19.34-27.228-35.97-23.471z" fill="silver"/><path d="M1656 636.519c-15.69 3.428-19.48 27.122-9.58 38.337 4.27 4.844 13.34 6.017 19.41 4.884 12.94-2.415 18.95-19.191 14.25-30.74-3.96-9.711-13.92-14.701-24.08-12.481m80 0c-8.33 1.829-12.08 8.791-14.08 16.481-3.81 14.72-4.87 34.223.47 48.714 3.38 9.183 11.14 16.339 21.44 14.007 8.23-1.863 12.34-9.327 14.29-16.721 3.95-14.985 2.6-32.977-.79-48-2.38-10.578-10.41-16.879-21.33-14.481z" fill="#010101"/><path d="M750 1105h107c2.469 0 6.311.62 8.397-1.03 2.477-1.96 1.684-7.21 1.564-9.97-.438-10-1.798-20.19-3.761-30-8.866-44.32-37.869-82.695-77.2-104.866-31.549-17.784-66.261-25.416-102-29.3-18.864-2.05-38.985-3.505-58-1.664-7.393.715-14.673 2.451-22 3.531-19.671 2.897-39.723 6.972-58 15.196-34.885 15.698-66.57 39.461-86.014 73.103-12.953 22.41-16.986 48.48-16.986 74 0 17.52 1.745 34.5 8.014 51 14.641 38.53 47.644 66.37 84.986 82.3 21.702 9.26 44.512 14.65 67 21.32 18.896 5.61 37.914 10.48 57 15.5 14.325 3.76 29.161 6.7 43 12.08 28.173 10.97 64.943 26.07 65 61.8.006 4.03.159 8.04-.745 12-1.135 4.96-2.112 10.4-4.375 15-11.457 23.28-39.501 36-63.88 39.29-8.946 1.2-17.983 3-27 3.62-10.494.72-20.641-.34-31-1.62-27.003-3.36-54.435-10.9-73.911-31.3-11.167-11.7-20.234-26.99-23.459-42.99-1.201-5.96-1.115-12.01-1.804-18-.272-2.36-.749-5.26-3.129-6.4-2.465-1.17-6.048-.6-8.697-.6h-97c-2.236 0-5.508-.47-7.397 1.03-3.508 2.78-1.836 14.93-1.432 18.97 1.714 17.14 4.486 35.91 11.234 51.91 6.792 16.1 15.003 31.46 26.055 45.09 27.477 33.88 65.415 53.21 106.54 64.71 49.392 13.81 102.45 15 153 6.88 40.003-6.43 81.438-21.47 112-48.76 11.567-10.33 20.253-22 28.669-34.83 8.108-12.36 14.701-26.48 18.096-41 4.423-18.91 5.461-37.66 5.231-57-.135-11.34-2.625-23.03-5.371-34-3.95-15.78-13.212-30.41-23.226-43-46.593-58.57-123.444-67.87-191.399-85.37-17.829-4.59-35.39-9.96-53.001-15.27-15.332-4.62-34.265-10.93-44.234-24.36-7.408-9.98-8.558-22.95-7.675-35 .524-7.14 3.282-14.48 6.71-20.71 14.184-25.8 47.417-33.29 74.2-33.29 38.469 0 83.732 7.12 101.035 47 4.672 10.77 7.046 23.36 7.965 35m302 40v-39c0-3.32 1.35-10.63-1.6-12.97-1.68-1.33-4.41-1.02-6.4-1.03h-73c-5.649 0-11.352-.23-16.995.02-2.517.11-4.874.39-5.687 3.13-1.138 3.83-.318 8.88-.318 12.85v380h110v-222c0-14.83-.2-29.69 4.38-44 10.75-33.58 39.21-53.01 73.62-53 11.85 0 25.15 2.06 35 9.1 27.08 19.35 26 58.05 26 87.9v222h109v-168c0-34.53-3.13-70.5 6.46-104 4.82-16.87 19.21-35.52 35.63-42.26 10.76-4.42 21.49-4.74 32.91-4.74 13.26 0 27.07 2.16 38 10.25 27.83 20.61 26 58.62 26 89.75v219h109v-201c0-39.74 4.11-81.5-7.21-120-10.18-34.62-35.38-61.21-68.79-74.39-16.17-6.38-33.87-8.14-51-9.78-16.05-1.53-33.22-2.08-49 1.76-24.94 6.07-46.03 18.42-65 35.58-5.08 4.59-9.85 9.58-14.25 14.83-3.32 3.97-6.08 8.63-10.75 11-.73-5.5-4.12-9.33-6.83-14-7.79-13.44-18.4-25.02-32.17-32.54-30.06-16.41-65.5-19.76-99-15.75-12.4 1.49-25.69 4.26-37 9.89-12.71 6.33-25.72 14.61-36 24.44-8.82 8.43-15.91 19.02-25 26.96m-603 589h-22c.043 15.61 5.509 32.82 17.089 43.82 19.832 18.83 54.744 22.62 79.911 15.08 16.688-5 34.693-12.79 41.239-30.94 1.879-5.21 2.611-11.45 2.746-16.96.237-9.66-1.577-20.01-7.483-28-13.593-18.37-43.574-23.32-64.502-27.26-13.718-2.58-37.602-7.6-39.867-24.78-2.4-18.2 11.941-28.52 27.867-31.95 23.853-5.13 53.42 7.74 54 34.99h22c0-17.71-6.032-34.26-21-44.83-7.912-5.58-17.624-8.02-27-9.47-29.981-4.63-68.948 2.67-78.215 36.3-1.441 5.23-1.913 11.65-1.208 17 .727 5.52 1.734 10.96 4.264 16 6.375 12.71 19.186 18.2 32.159 21.73 13.593 3.71 27.365 6.66 41 10.27 14.281 3.79 33.669 10.56 34.405 28 .907 21.51-17.155 29.81-35.405 32.42-27.626 3.96-58.674-10.55-60-41.42m698-118v26h21v-26h-21m54 0v176h21v-33c0-4.5-1.12-10.85 1.03-14.96 3.66-7 12.52-9.7 15.97-17.04 6.17 2.94 9.32 9.48 13 15 7.04 10.56 14.58 21.07 21 32 2.93 5.01 6.7 13.69 11.61 16.97 2.31 1.55 5.76 1.03 8.39 1.03h17c-1.89-8.66-8.83-16.17-13.85-23.29-8.79-12.46-17.63-25.46-25.11-38.75-2.75-4.89-6.47-9.08-9.39-13.87-.92-1.51-2.58-3.25-2.11-5.17 1.11-4.51 9.13-9.77 12.42-12.87 7.97-7.48 16.09-14.76 24.08-22.22 3.73-3.48 8.3-6.46 10.96-10.83-8.04 0-20.34-2.32-27.83.74-6.72 2.75-12.17 10.94-17.34 15.84-13.06 12.38-25.56 26.45-39.83 37.42v-103h-21m-123 12v38h-21v18h21v74c0 9.27-1.24 22.31 6.61 29.18 9.15 8.01 28.23 4.82 39.39 4.82v-18c-6.04 0-16.65 2.03-21.39-2.51-5.84-5.6-3.61-17.19-3.61-24.49v-63h25v-18h-25v-38h-21m-442 35.42c-14.976 1.99-28.368 9.16-37.432 21.58-7.136 9.78-9.605 22.29-10.738 34-2.104 21.75 2.163 44.83 18.263 60.91 12.518 12.49 33.996 16 50.907 13.8 16.933-2.2 32.217-9.75 42.14-24.1 12.773-18.46 13.65-45.72 7.211-66.61-2.063-6.69-4.419-13.39-8.766-19-14.614-18.89-39.127-23.56-61.585-20.58M752 1682v-17c-4.282 0-16.073-2.06-18.972 1.6-1.8 2.28-1.028 6.71-1.028 9.4v116h21v-60c0-11.05-1.558-22.92 3.599-33.09 7.889-15.55 32.382-26.93 46.502-12.39 8.588 8.84 7.899 22 7.899 33.48v72h20v-60c0-11.27-1.133-24.48 3.623-35 7.906-17.48 36.408-23.71 48.984-7.98 6.66 8.33 5.393 21.93 5.393 31.98v71h20v-78c0-12.95 2.041-26.78-5.753-38-9.537-13.73-32.072-14.97-47.247-12.79-7.835 1.13-15.134 6.1-20.907 11.25-3.185 2.85-4.897 6.25-9.093 7.54-.552-8.22-7.711-13.68-15-16.45-13.905-5.3-32.593-3.95-45.385 3.54-5.496 3.22-8.983 8.73-13.615 12.91m184 22h21c1.579-19.33 20.489-26.61 38-23.54 12.03 2.12 23.31 9.77 20.77 23.54-1.75 9.52-13.1 10.94-20.77 12.19-13.865 2.27-28.936 3.47-42 9.14-3.564 1.55-7.581 2.65-10.56 5.24-15.253 13.26-15.521 41.71-.411 55.17 4.547 4.05 10.13 5.64 15.971 6.81 14.018 2.82 29.903 2.24 42.83-4.33 5.99-3.05 10.91-9.32 17.17-11.22.11 2.44.32 4.69 1.19 7 5.25 13.9 19.51 9.52 30.81 8v-17c-2.79.35-6.22 1.42-8.86-.04-7.02-3.91-4.14-20.3-4.14-26.96v-46c0-10.77-.46-21.9-9.05-29.7-9.57-8.68-22.78-9.3-34.95-9.3-8.729 0-18.525-.7-27 1.73-17.94 5.14-29.949 20.83-30 39.27m211-38v126h21v-126h-21z" fill="silver"/><path d="M641 1680.51c-44.657 9.16-42.6 93.14 5 95.45 3.594.17 7.469.29 11-.48 16.23-3.51 25.609-17.46 29.169-32.48 5.893-24.86-1.985-54.54-29.173-61.86-5.092-1.37-10.793-1.69-15.996-.63m375 47.49c-9.04.46-17.965 4.11-27 5.28-6.774.88-13.574 1.04-20 3.67-4.556 1.86-9.484 4.12-12.581 8.07-6.492 8.29-3.833 21.49 4.621 27.28 4.582 3.14 10.576 3.67 15.96 3.7 13.594.06 30.56-4.4 36.69-18 4.05-9.01 2.31-20.32 2.31-30z" fill="#010101"/></svg>