<?xml version="1.0" standalone="no"?>
<!DOCTYPE svg PUBLIC "-//W3C//DTD SVG 20010904//EN"
 "http://www.w3.org/TR/2001/REC-SVG-20010904/DTD/svg10.dtd">
<svg version="1.0" xmlns="http://www.w3.org/2000/svg"
 width="600.000000pt" height="600.000000pt" viewBox="0 0 600.000000 600.000000"
 preserveAspectRatio="xMidYMid meet">
<metadata>
Created by potrace 1.11, written by Peter Selinger 2001-2013
</metadata>
<g transform="translate(0.000000,600.000000) scale(0.100000,-0.100000)"
fill="#000000" stroke="none">
<path d="M2789 5966 c-2 -2 -40 -7 -84 -10 -44 -4 -87 -9 -95 -11 -13 -3 -40
-7 -136 -20 -11 -2 -56 -11 -100 -20 -979 -211 -1785 -884 -2157 -1800 -77
-189 -146 -427 -171 -591 -4 -22 -11 -66 -16 -100 -25 -155 -34 -537 -17 -704
12 -115 44 -304 71 -415 23 -93 94 -324 115 -370 5 -11 21 -49 36 -85 89 -212
236 -463 378 -648 129 -167 333 -377 467 -482 25 -19 47 -37 50 -41 13 -17
245 -177 328 -226 196 -115 428 -219 627 -281 116 -36 320 -87 385 -96 25 -3
72 -11 105 -16 192 -32 624 -34 825 -4 369 55 651 143 960 298 164 83 434 254
506 321 6 5 30 26 54 45 57 46 137 119 218 200 454 452 766 1090 838 1715 3
28 9 79 14 115 8 66 6 519 -3 555 -3 11 -8 49 -12 85 -4 36 -8 67 -10 70 -2 3
-6 28 -9 55 -19 142 -111 456 -191 645 -30 72 -105 224 -155 314 -32 57 -180
281 -212 321 -361 446 -700 712 -1193 935 -138 63 -445 161 -575 184 -19 3
-46 9 -60 12 -14 3 -38 7 -55 9 -16 3 -39 6 -50 9 -12 2 -48 7 -80 11 -33 4
-69 10 -80 12 -25 6 -510 14 -516 9z"/>
</g>
</svg>
