<svg version="1.1" xmlns="http://www.w3.org/2000/svg" xmlns:xlink="http://www.w3.org/1999/xlink" x="0px" y="0px" viewBox="0 0 1000 1000" enable-background="new 0 0 1000 1000" xml:space="preserve">
<path fill="#fff" d="M882.3,612.6c0,0,79.2,78.3,98.8,114.5c0.5,0.8,0.8,1.4,0.9,1.7c8,13.4,9.9,23.9,6,31.6c-6.6,12.8-29,19.2-36.6,19.7c0,0-136.1,0-140,0c-9.8,0-30-2.5-54.7-19.6c-18.9-13.2-37.6-34.9-55.8-56.1c-27.1-31.5-50.6-58.8-74.4-58.8c-3,0-6,0.5-8.8,1.5c-18,5.7-40.8,31.3-40.8,99.6c0,21.4-16.9,33.5-28.7,33.5c0,0-61.2,0-64.1,0c-21.9,0-135.6-7.6-236.5-114C123.9,535.9,12.8,274.6,11.8,272.3c-6.9-16.9,7.6-26.1,23.3-26.1h141.4c19,0,25.1,11.5,29.4,21.8c5,11.8,23.5,59,53.9,112.1c49.2,86.3,79.4,121.5,103.6,121.5c4.6,0,8.9-1.1,12.9-3.4c31.6-17.3,25.7-130,24.2-153.3c0-4.5,0-50.3-16.2-72.5c-11.6-15.9-31.3-22.1-43.2-24.3c3.2-4.6,9.9-11.7,18.6-15.8c21.6-10.8,60.7-12.3,99.4-12.3h21.5c42,0.6,52.9,3.3,68.2,7.2c30.8,7.4,31.4,27.3,28.7,95.2c-0.8,19.4-1.6,41.3-1.6,67c0,5.5-0.2,11.6-0.2,17.8c-0.9,34.8-2.2,74.1,22.4,90.2c3.1,2,6.8,3,10.6,3c8.5,0,34.1,0,103.3-118.8c30.4-52.5,53.9-114.4,55.5-119c1.4-2.6,5.5-9.9,10.5-12.8c3.8-2.4,8.9-2.7,11.6-2.7H956c18.1,0,30.4,2.7,32.8,9.6c4,11.1-0.8,45.1-76.7,147.8c-12.8,17.1-24,31.9-33.9,44.8C809.4,539.4,809.4,544,882.3,612.6L882.3,612.6z"/>
</svg>
