<svg enable-background="new 0 0 100 100" height="100px" id="Layer_1" version="1.0" viewBox="0 0 100 100" width="100px" xml:space="preserve" xmlns="http://www.w3.org/2000/svg" xmlns:xlink="http://www.w3.org/1999/xlink">
  <g fill="#fff">
    <path d="M70,9.999H30c-10.999,0-20,9.001-20,20v40.002c0,10.996,9.001,20,20,20h40c10.999,0,20-9.004,20-20V29.999  C90,19,80.999,9.999,70,9.999z M83.333,70.001c0,7.35-5.979,13.333-13.333,13.333H30c-7.351,0-13.333-5.983-13.333-13.333V29.999  c0-7.352,5.982-13.333,13.333-13.333h40c7.354,0,13.333,5.981,13.333,13.333V70.001z"/>
    <circle cx="71.667" cy="28.332" r="5"/>
    <path d="M50,29.999c-11.048,0-20,8.953-20,20c0,11.043,8.952,20.002,20,20.002c11.045,0,20-8.959,20-20.002  C70,38.952,61.045,29.999,50,29.999z M50,63.334c-7.363,0-13.333-5.97-13.333-13.335S42.637,36.666,50,36.666  s13.333,5.968,13.333,13.333S57.363,63.334,50,63.334z"/>
  </g>
</svg>
