<?xml version="1.0" standalone="no"?>
<!DOCTYPE svg PUBLIC "-//W3C//DTD SVG 20010904//EN"
 "http://www.w3.org/TR/2001/REC-SVG-20010904/DTD/svg10.dtd">
<svg version="1.0" xmlns="http://www.w3.org/2000/svg"
 width="1080.000000pt" height="1080.000000pt" viewBox="0 0 1080.000000 1080.000000"
 preserveAspectRatio="xMidYMid meet">
<metadata>
Created by potrace 1.15, written by Peter Selinger 2001-2017
</metadata>
<g transform="translate(0.000000,1080.000000) scale(0.100000,-0.100000)"
fill="#000000" stroke="none">
<path d="M4995 9638 c-151 -10 -332 -34 -455 -59 -252 -51 -308 -65 -485 -121
-49 -15 -93 -28 -97 -28 -11 0 -284 -107 -343 -135 -218 -101 -381 -186 -478
-248 -31 -20 -60 -37 -62 -37 -5 0 -111 -72 -210 -142 -649 -459 -1175 -1133
-1468 -1878 -62 -158 -134 -380 -160 -490 -8 -36 -24 -103 -35 -150 -26 -110
-47 -238 -73 -431 -17 -138 -19 -199 -16 -520 3 -278 7 -390 20 -474 35 -227
48 -302 62 -360 8 -33 26 -107 40 -165 58 -241 195 -614 301 -815 9 -16 37
-70 62 -120 78 -153 217 -372 355 -556 283 -379 660 -730 1081 -1004 136 -89
393 -229 526 -286 52 -23 109 -48 125 -56 17 -8 59 -26 95 -38 36 -13 103 -38
150 -55 287 -105 682 -188 1019 -216 302 -24 665 -16 916 22 55 8 118 17 140
19 73 9 285 55 400 87 114 32 372 116 417 136 24 11 70 29 102 41 33 12 71 28
85 36 15 8 78 39 141 69 190 91 303 155 495 283 489 325 914 762 1230 1265 89
141 274 496 310 593 10 28 28 73 40 100 33 73 109 306 145 441 17 64 32 120
35 124 2 3 6 24 9 47 2 22 10 60 16 82 6 23 13 57 15 74 2 18 11 73 19 122 69
412 69 892 0 1300 -8 50 -17 104 -19 122 -2 17 -8 49 -14 70 -6 21 -13 56 -16
78 -6 40 -10 56 -65 245 -17 58 -35 122 -41 143 -5 21 -14 45 -19 55 -5 9 -19
46 -30 82 -12 36 -27 79 -34 95 -8 17 -31 71 -51 120 -67 158 -199 413 -280
540 -171 267 -280 411 -469 623 -383 428 -866 777 -1417 1025 -20 9 -89 37
-155 62 -65 25 -128 50 -139 54 -11 5 -47 18 -80 28 -33 11 -76 25 -97 32 -79
26 -272 74 -403 100 -341 69 -773 95 -1140 69z m750 -1208 c201 -40 425 -125
590 -225 148 -90 317 -226 368 -296 57 -79 53 -185 -11 -260 -51 -60 -104 -83
-184 -83 -76 0 -108 17 -206 107 -198 182 -459 300 -747 338 -121 16 -353 5
-470 -21 -231 -52 -429 -150 -609 -304 -107 -91 -127 -100 -211 -101 -59 0
-78 4 -118 28 -67 39 -98 91 -104 171 -8 91 17 138 116 223 211 181 444 308
701 381 216 61 302 72 560 67 170 -2 238 -8 325 -25z m-150 -727 c201 -38 374
-128 527 -271 80 -75 107 -125 108 -195 0 -124 -96 -219 -223 -220 -78 -1
-112 15 -204 98 -88 78 -140 109 -236 142 -100 34 -270 36 -367 3 -97 -33
-173 -77 -243 -140 -85 -78 -119 -94 -192 -93 -111 2 -191 61 -221 161 -27 92
0 157 107 256 248 229 598 325 944 259z m-105 -765 c53 -22 92 -58 128 -113
37 -58 43 -162 12 -233 -74 -172 -315 -216 -450 -81 -150 150 -78 393 133 445
61 15 114 10 177 -18z m1582 -44 c152 -31 281 -107 405 -237 237 -252 379
-703 424 -1340 55 -789 -220 -1399 -708 -1568 -148 -51 -330 -69 -461 -45
-246 44 -379 193 -465 521 -33 125 -50 236 -77 490 -32 306 -69 434 -148 512
-46 46 -88 63 -158 63 -119 0 -289 -68 -466 -186 l-98 -65 60 -67 c228 -256
408 -556 479 -800 86 -294 78 -589 -23 -807 -115 -248 -329 -436 -614 -539
-231 -83 -598 -103 -865 -47 -493 103 -948 421 -1328 927 -245 327 -438 748
-549 1201 -31 123 -31 127 -15 170 18 46 34 60 75 63 90 8 105 -10 165 -191
65 -195 132 -356 222 -531 331 -649 845 -1092 1372 -1182 118 -20 343 -21 444
-2 263 51 485 231 589 478 78 184 78 421 3 683 -80 278 -300 593 -556 796
l-36 28 -53 -80 c-74 -115 -190 -250 -286 -334 -83 -72 -229 -175 -249 -175
-5 0 -80 125 -166 278 l-157 277 32 14 c278 126 421 214 536 331 83 84 129
156 168 258 23 58 26 83 26 187 1 180 -40 285 -143 361 -78 58 -165 79 -316
78 -152 0 -254 -18 -433 -75 -240 -76 -364 -98 -438 -77 -59 16 -139 103 -159
172 -22 74 -22 150 0 203 35 88 201 200 349 238 170 43 481 46 628 7 441 -119
737 -470 799 -947 15 -119 7 -282 -20 -365 -11 -36 -21 -66 -21 -66 0 -4 110
-84 116 -84 4 0 64 55 133 123 259 249 511 385 751 403 41 4 84 7 94 8 17 2
22 21 41 132 49 288 133 466 290 612 191 179 511 256 807 196z"/>
<path d="M6698 6370 c-230 -39 -415 -173 -515 -375 -38 -76 -38 -78 16 -113
80 -52 128 -130 162 -260 11 -44 32 -211 49 -387 49 -509 64 -600 116 -734 51
-131 133 -219 235 -257 95 -35 266 -15 394 45 211 99 379 336 446 630 26 113
36 360 20 501 -39 337 -141 572 -330 760 -165 164 -366 228 -593 190z"/>
<path d="M0 10 c0 -7 1807 -10 5400 -10 3593 0 5400 3 5400 10 0 7 -1807 10
-5400 10 -3593 0 -5400 -3 -5400 -10z"/>
</g>
</svg>
