<svg version="1.0" xmlns="http://www.w3.org/2000/svg" width="1440" height="1440" viewBox="0 0 1080 1080"><path d="M499.5 116.2c-15.1 1-33.2 3.4-45.5 5.9-25.2 5.1-30.8 6.5-48.5 12.1-4.9 1.5-9.3 2.8-9.7 2.8-1.1 0-28.4 10.7-34.3 13.5-21.8 10.1-38.1 18.6-47.8 24.8-3.1 2-6 3.7-6.2 3.7-.5 0-11.1 7.2-21 14.2C221.6 239.1 169 306.5 139.7 381c-6.2 15.8-13.4 38-16 49-.8 3.6-2.4 10.3-3.5 15-2.6 11-4.7 23.8-7.3 43.1-1.7 13.8-1.9 19.9-1.6 52 .3 27.8.7 39 2 47.4 3.5 22.7 4.8 30.2 6.2 36 .8 3.3 2.6 10.7 4 16.5 5.8 24.1 19.5 61.4 30.1 81.5.9 1.6 3.7 7 6.2 12 7.8 15.3 21.7 37.2 35.5 55.6 28.3 37.9 66 73 108.1 100.4 13.6 8.9 39.3 22.9 52.6 28.6 5.2 2.3 10.9 4.8 12.5 5.6 1.7.8 5.9 2.6 9.5 3.8 3.6 1.3 10.3 3.8 15 5.5 28.7 10.5 68.2 18.8 101.9 21.6 30.2 2.4 66.5 1.6 91.6-2.2 5.5-.8 11.8-1.7 14-1.9 7.3-.9 28.5-5.5 40-8.7 11.4-3.2 37.2-11.6 41.7-13.6 2.4-1.1 7-2.9 10.2-4.1 3.3-1.2 7.1-2.8 8.5-3.6 1.5-.8 7.8-3.9 14.1-6.9 19-9.1 30.3-15.5 49.5-28.3 48.9-32.5 91.4-76.2 123-126.5 8.9-14.1 27.4-49.6 31-59.3 1-2.8 2.8-7.3 4-10 3.3-7.3 10.9-30.6 14.5-44.1 1.7-6.4 3.2-12 3.5-12.4.2-.3.6-2.4.9-4.7.2-2.2 1-6 1.6-8.2.6-2.3 1.3-5.7 1.5-7.4.2-1.8 1.1-7.3 1.9-12.2 6.9-41.2 6.9-89.2 0-130-.8-5-1.7-10.4-1.9-12.2-.2-1.7-.8-4.9-1.4-7-.6-2.1-1.3-5.6-1.6-7.8-.6-4-1-5.6-6.5-24.5-1.7-5.8-3.5-12.2-4.1-14.3-.5-2.1-1.4-4.5-1.9-5.5-.5-.9-1.9-4.6-3-8.2-1.2-3.6-2.7-7.9-3.4-9.5-.8-1.7-3.1-7.1-5.1-12-6.7-15.8-19.9-41.3-28-54-17.1-26.7-28-41.1-46.9-62.3-38.3-42.8-86.6-77.7-141.7-102.5-2-.9-8.9-3.7-15.5-6.2-6.5-2.5-12.8-5-13.9-5.4-1.1-.5-4.7-1.8-8-2.8-3.3-1.1-7.6-2.5-9.7-3.2-7.9-2.6-27.2-7.4-40.3-10-34.1-6.9-77.3-9.5-114-6.9zm75 120.8c20.1 4 42.5 12.5 59 22.5 14.8 9 31.7 22.6 36.8 29.6 5.7 7.9 5.3 18.5-1.1 26-5.1 6-10.4 8.3-18.4 8.3-7.6 0-10.8-1.7-20.6-10.7-19.8-18.2-45.9-30-74.7-33.8-12.1-1.6-35.3-.5-47 2.1-23.1 5.2-42.9 15-60.9 30.4-10.7 9.1-12.7 10-21.1 10.1-5.9 0-7.8-.4-11.8-2.8-6.7-3.9-9.8-9.1-10.4-17.1-.8-9.1 1.7-13.8 11.6-22.3 21.1-18.1 44.4-30.8 70.1-38.1 21.6-6.1 30.2-7.2 56-6.7 17 .2 23.8.8 32.5 2.5zm-15 72.7c20.1 3.8 37.4 12.8 52.7 27.1 8 7.5 10.7 12.5 10.8 19.5 0 12.4-9.6 21.9-22.3 22-7.8.1-11.2-1.5-20.4-9.8-8.8-7.8-14-10.9-23.6-14.2-10-3.4-27-3.6-36.7-.3-9.7 3.3-17.3 7.7-24.3 14-8.5 7.8-11.9 9.4-19.2 9.3-11.1-.2-19.1-6.1-22.1-16.1-2.7-9.2 0-15.7 10.7-25.6 24.8-22.9 59.8-32.5 94.4-25.9zM549 386.2c5.3 2.2 9.2 5.8 12.8 11.3 3.7 5.8 4.3 16.2 1.2 23.3-7.4 17.2-31.5 21.6-45 8.1-15-15-7.8-39.3 13.3-44.5 6.1-1.5 11.4-1 17.7 1.8zm158.2 4.4c15.2 3.1 28.1 10.7 40.5 23.7 23.7 25.2 37.9 70.3 42.4 134 5.5 78.9-22 139.9-70.8 156.8-14.8 5.1-33 6.9-46.1 4.5-24.6-4.4-37.9-19.3-46.5-52.1-3.3-12.5-5-23.6-7.7-49-3.2-30.6-6.9-43.4-14.8-51.2-4.6-4.6-8.8-6.3-15.8-6.3-11.9 0-28.9 6.8-46.6 18.6l-9.8 6.5 6 6.7c22.8 25.6 40.8 55.6 47.9 80 8.6 29.4 7.8 58.9-2.3 80.7-11.5 24.8-32.9 43.6-61.4 53.9-23.1 8.3-59.8 10.3-86.5 4.7-49.3-10.3-94.8-42.1-132.8-92.7-24.5-32.7-43.8-74.8-54.9-120.1-3.1-12.3-3.1-12.7-1.5-17 1.8-4.6 3.4-6 7.5-6.3 9-.8 10.5 1 16.5 19.1 6.5 19.5 13.2 35.6 22.2 53.1 33.1 64.9 84.5 109.2 137.2 118.2 11.8 2 34.3 2.1 44.4.2 26.3-5.1 48.5-23.1 58.9-47.8 7.8-18.4 7.8-42.1.3-68.3-8-27.8-30-59.3-55.6-79.6l-3.6-2.8-5.3 8c-7.4 11.5-19 25-28.6 33.4-8.3 7.2-22.9 17.5-24.9 17.5-.5 0-8-12.5-16.6-27.8l-15.7-27.7 3.2-1.4c27.8-12.6 42.1-21.4 53.6-33.1 8.3-8.4 12.9-15.6 16.8-25.8 2.3-5.8 2.6-8.3 2.6-18.7.1-18-4-28.5-14.3-36.1-7.8-5.8-16.5-7.9-31.6-7.8-15.2 0-25.4 1.8-43.3 7.5-24 7.6-36.4 9.8-43.8 7.7-5.9-1.6-13.9-10.3-15.9-17.2-2.2-7.4-2.2-15 0-20.3 3.5-8.8 20.1-20 34.9-23.8 17-4.3 48.1-4.6 62.8-.7 44.1 11.9 73.7 47 79.9 94.7 1.5 11.9.7 28.2-2 36.5-1.1 3.6-2.1 6.6-2.1 6.6 0 .4 11 8.4 11.6 8.4.4 0 6.4-5.5 13.3-12.3 25.9-24.9 51.1-38.5 75.1-40.3 4.1-.4 8.4-.7 9.4-.8 1.7-.2 2.2-2.1 4.1-13.2 4.9-28.8 13.3-46.6 29-61.2 19.1-17.9 51.1-25.6 80.7-19.6z"/><path d="M669.8 443c-23 3.9-41.5 17.3-51.5 37.5-3.8 7.6-3.8 7.8 1.6 11.3 8 5.2 12.8 13 16.2 26 1.1 4.4 3.2 21.1 4.9 38.7 4.9 50.9 6.4 60 11.6 73.4 5.1 13.1 13.3 21.9 23.5 25.7 9.5 3.5 26.6 1.5 39.4-4.5 21.1-9.9 37.9-33.6 44.6-63 2.6-11.3 3.6-36 2-50.1-3.9-33.7-14.1-57.2-33-76-16.5-16.4-36.6-22.8-59.3-19zM0 1079c0 .7 180.7 1 540 1s540-.3 540-1-180.7-1-540-1-540 .3-540 1z"/></svg>